<svg width="101" height="24" viewBox="0 0 101 24" fill="none" xmlns="http://www.w3.org/2000/svg">
<path d="M28.7392 14.872H28.6552C28.4952 15.248 28.2712 15.556 27.9832 15.796C27.7032 16.028 27.3152 16.144 26.8192 16.144C26.4752 16.144 26.1592 16.08 25.8712 15.952C25.5912 15.824 25.3472 15.628 25.1392 15.364C24.9392 15.1 24.7792 14.764 24.6592 14.356C24.5472 13.948 24.4912 13.464 24.4912 12.904C24.4912 12.344 24.5472 11.86 24.6592 11.452C24.7792 11.044 24.9392 10.708 25.1392 10.444C25.3472 10.18 25.5912 9.98401 25.8712 9.85601C26.1592 9.72801 26.4752 9.66401 26.8192 9.66401C27.0672 9.66401 27.2872 9.69601 27.4792 9.76001C27.6712 9.82401 27.8392 9.91201 27.9832 10.024C28.1352 10.136 28.2632 10.272 28.3672 10.432C28.4792 10.584 28.5752 10.752 28.6552 10.936H28.7392V7.12001H30.5152V16H28.7392V14.872ZM27.5872 14.764C27.8992 14.764 28.1672 14.688 28.3912 14.536C28.6232 14.384 28.7392 14.144 28.7392 13.816V11.992C28.7392 11.664 28.6232 11.424 28.3912 11.272C28.1672 11.12 27.8992 11.044 27.5872 11.044C27.1872 11.044 26.8792 11.168 26.6632 11.416C26.4472 11.656 26.3392 11.992 26.3392 12.424V13.384C26.3392 13.816 26.4472 14.156 26.6632 14.404C26.8792 14.644 27.1872 14.764 27.5872 14.764ZM34.9865 16.144C33.9465 16.144 33.1585 15.856 32.6225 15.28C32.0865 14.704 31.8185 13.92 31.8185 12.928C31.8185 12.424 31.8865 11.972 32.0225 11.572C32.1665 11.164 32.3665 10.82 32.6225 10.54C32.8865 10.252 33.2025 10.036 33.5705 9.89201C33.9465 9.74001 34.3665 9.66401 34.8305 9.66401C35.2945 9.66401 35.7105 9.74001 36.0785 9.89201C36.4465 10.036 36.7585 10.244 37.0145 10.516C37.2705 10.788 37.4665 11.12 37.6025 11.512C37.7465 11.896 37.8185 12.328 37.8185 12.808V13.336H33.5825V13.444C33.5825 13.844 33.7065 14.168 33.9545 14.416C34.2025 14.656 34.5665 14.776 35.0465 14.776C35.4145 14.776 35.7305 14.708 35.9945 14.572C36.2585 14.428 36.4865 14.24 36.6785 14.008L37.6385 15.052C37.3985 15.348 37.0625 15.604 36.6305 15.82C36.1985 16.036 35.6505 16.144 34.9865 16.144ZM34.8425 10.936C34.4585 10.936 34.1505 11.056 33.9185 11.296C33.6945 11.528 33.5825 11.844 33.5825 12.244V12.34H36.0785V12.244C36.0785 11.836 35.9665 11.516 35.7425 11.284C35.5265 11.052 35.2265 10.936 34.8425 10.936ZM39.1938 16V9.80801H40.9698V10.936H41.0418C41.1138 10.76 41.2018 10.596 41.3058 10.444C41.4098 10.292 41.5338 10.16 41.6778 10.048C41.8298 9.92801 42.0018 9.83601 42.1938 9.77201C42.3938 9.70001 42.6178 9.66401 42.8658 9.66401C43.1618 9.66401 43.4338 9.71601 43.6818 9.82001C43.9298 9.91601 44.1418 10.064 44.3178 10.264C44.4938 10.464 44.6298 10.708 44.7258 10.996C44.8298 11.284 44.8818 11.616 44.8818 11.992V16H43.1058V12.232C43.1058 11.432 42.7578 11.032 42.0618 11.032C41.9258 11.032 41.7898 11.052 41.6538 11.092C41.5258 11.124 41.4098 11.18 41.3058 11.26C41.2018 11.332 41.1178 11.424 41.0538 11.536C40.9978 11.648 40.9698 11.78 40.9698 11.932V16H39.1938ZM49.6891 16C49.0491 16 48.5731 15.832 48.2611 15.496C47.9491 15.16 47.7931 14.732 47.7931 14.212V11.188H46.1131V9.80801H47.2051C47.4691 9.80801 47.6571 9.75601 47.7691 9.65201C47.8811 9.54801 47.9371 9.35601 47.9371 9.07601V7.62401H49.5691V9.80801H51.9811V11.188H49.5691V14.62H51.9811V16H49.6891ZM53.5844 7.12001H55.3604V10.936H55.4324C55.5044 10.76 55.5924 10.596 55.6964 10.444C55.8004 10.292 55.9244 10.16 56.0684 10.048C56.2204 9.92801 56.3924 9.83601 56.5844 9.77201C56.7844 9.70001 57.0084 9.66401 57.2564 9.66401C57.5524 9.66401 57.8244 9.71601 58.0724 9.82001C58.3204 9.91601 58.5324 10.064 58.7084 10.264C58.8844 10.464 59.0204 10.708 59.1164 10.996C59.2204 11.284 59.2724 11.616 59.2724 11.992V16H57.4964V12.232C57.4964 11.432 57.1484 11.032 56.4524 11.032C56.3164 11.032 56.1804 11.052 56.0444 11.092C55.9164 11.124 55.8004 11.18 55.6964 11.26C55.5924 11.332 55.5084 11.424 55.4444 11.536C55.3884 11.648 55.3604 11.78 55.3604 11.932V16H53.5844V7.12001ZM63.7677 16.144C62.7277 16.144 61.9397 15.856 61.4037 15.28C60.8677 14.704 60.5997 13.92 60.5997 12.928C60.5997 12.424 60.6677 11.972 60.8037 11.572C60.9477 11.164 61.1477 10.82 61.4037 10.54C61.6677 10.252 61.9837 10.036 62.3517 9.89201C62.7277 9.74001 63.1477 9.66401 63.6117 9.66401C64.0757 9.66401 64.4917 9.74001 64.8597 9.89201C65.2277 10.036 65.5397 10.244 65.7957 10.516C66.0517 10.788 66.2477 11.12 66.3837 11.512C66.5277 11.896 66.5997 12.328 66.5997 12.808V13.336H62.3637V13.444C62.3637 13.844 62.4877 14.168 62.7357 14.416C62.9837 14.656 63.3477 14.776 63.8277 14.776C64.1957 14.776 64.5117 14.708 64.7757 14.572C65.0397 14.428 65.2677 14.24 65.4597 14.008L66.4197 15.052C66.1797 15.348 65.8437 15.604 65.4117 15.82C64.9797 16.036 64.4317 16.144 63.7677 16.144ZM63.6237 10.936C63.2397 10.936 62.9317 11.056 62.6997 11.296C62.4757 11.528 62.3637 11.844 62.3637 12.244V12.34H64.8597V12.244C64.8597 11.836 64.7477 11.516 64.5237 11.284C64.3077 11.052 64.0077 10.936 63.6237 10.936ZM67.975 16V9.80801H69.751V10.936H69.823C69.895 10.76 69.983 10.596 70.087 10.444C70.191 10.292 70.315 10.16 70.459 10.048C70.611 9.92801 70.783 9.83601 70.975 9.77201C71.175 9.70001 71.399 9.66401 71.647 9.66401C71.943 9.66401 72.215 9.71601 72.463 9.82001C72.711 9.91601 72.923 10.064 73.099 10.264C73.275 10.464 73.411 10.708 73.507 10.996C73.611 11.284 73.663 11.616 73.663 11.992V16H71.887V12.232C71.887 11.432 71.539 11.032 70.843 11.032C70.707 11.032 70.571 11.052 70.435 11.092C70.307 11.124 70.191 11.18 70.087 11.26C69.983 11.332 69.899 11.424 69.835 11.536C69.779 11.648 69.751 11.78 69.751 11.932V16H67.975ZM77.9904 16.144C77.5424 16.144 77.2184 16.048 77.0184 15.856C76.8264 15.656 76.7304 15.42 76.7304 15.148V14.728C76.7304 14.456 76.8264 14.224 77.0184 14.032C77.2184 13.832 77.5424 13.732 77.9904 13.732C78.4384 13.732 78.7584 13.832 78.9504 14.032C79.1504 14.224 79.2504 14.456 79.2504 14.728V15.148C79.2504 15.42 79.1504 15.656 78.9504 15.856C78.7584 16.048 78.4384 16.144 77.9904 16.144Z" fill="#D7D7D8"/>
<path d="M82.4857 16V14.668H84.2857V8.95601H82.4857V7.62401H87.8857V8.95601H86.0857V14.668H87.8857V16H82.4857ZM92.381 16.144C91.261 16.144 90.433 15.764 89.897 15.004C89.369 14.244 89.105 13.18 89.105 11.812C89.105 10.444 89.369 9.38001 89.897 8.62001C90.433 7.86001 91.261 7.48001 92.381 7.48001C93.501 7.48001 94.325 7.86001 94.853 8.62001C95.389 9.38001 95.657 10.444 95.657 11.812C95.657 13.18 95.389 14.244 94.853 15.004C94.325 15.764 93.501 16.144 92.381 16.144ZM92.381 14.692C92.893 14.692 93.245 14.504 93.437 14.128C93.637 13.744 93.737 13.212 93.737 12.532V11.08C93.737 10.408 93.637 9.88401 93.437 9.50801C93.245 9.12401 92.893 8.93201 92.381 8.93201C91.869 8.93201 91.513 9.12401 91.313 9.50801C91.121 9.88401 91.025 10.408 91.025 11.08V12.544C91.025 13.216 91.121 13.744 91.313 14.128C91.513 14.504 91.869 14.692 92.381 14.692Z" fill="#255AB2"/>
<ellipse cx="24.3139" cy="3.39132" rx="3.01022" ry="3.01026" fill="#255AB2"/>
<ellipse cx="3.24178" cy="11.959" rx="3.24178" ry="3.24182" fill="#255AB2"/>
<ellipse cx="8.79851" cy="18.9058" rx="1.38933" ry="1.38935" fill="#D9D9D9"/>
<ellipse cx="25.7024" cy="21.4529" rx="2.54711" ry="2.54714" fill="#255AB2"/>
<ellipse cx="13.6607" cy="11.7278" rx="5.32578" ry="5.32585" fill="#255AB2"/>
<ellipse cx="14.3564" cy="3.62305" rx="1.85245" ry="1.85247" fill="#D9D9D9"/>
<path d="M25.1741 1.53445L23.6265 5.42691C23.6265 5.42691 21.3957 7.07206 19.9184 8.4967C18.4412 9.92135 16.0611 12.723 16.0611 12.723L16.0754 10.2764L20.6247 5.90541L25.1741 1.53445Z" fill="#255AB2"/>
<path d="M13.979 12.7327L17.7119 14.5225C17.7119 14.5225 19.5371 16.48 21.0463 17.8289C22.5555 19.1777 25.441 21.4304 25.441 21.4304L23.2453 21.0355L18.6121 16.8841L13.979 12.7327Z" fill="#255AB2"/>
</svg>
